<svg width="216" height="42" viewBox="0 0 216 42" fill="none" xmlns="http://www.w3.org/2000/svg">
<g clip-path="url(#clip0_7_265)">
<path d="M-0.0585938 8.5V2.38281H3.6709V8.5H-0.0585938ZM3.55664 8.5V2.38281H7.28613V8.5H3.55664ZM7.17188 8.5V2.38281H10.9014V8.5H7.17188ZM10.7871 8.5V2.38281H14.5166V8.5H10.7871ZM14.4023 8.5V2.38281H18.1318V8.5H14.4023ZM18.0176 8.5V2.38281H21.7471V8.5H18.0176ZM23.7305 8.81055V5.04297H21.6328V4.53906H24.1992V8.81055H23.7305ZM22.793 8.81055V6.05078H21.6328V5.54688H23.2617V8.81055H22.793ZM28.8633 8.5V2.38281H32.5928V8.5H28.8633ZM32.4785 8.5V2.38281H36.208V8.5H32.4785ZM36.0938 8.5V2.38281H39.8232V8.5H36.0938ZM39.709 8.5V2.38281H43.4385V8.5H39.709ZM43.3242 8.5V2.38281H47.0537V8.5H43.3242ZM46.9395 8.5V2.38281H50.6689V8.5H46.9395ZM50.5547 8.5V2.38281H54.2842V8.5H50.5547ZM56.2676 8.81055V5.04297H54.1699V4.53906H56.7363V8.81055H56.2676ZM55.3301 8.81055V6.05078H54.1699V5.54688H55.7988V8.81055H55.3301ZM57.7852 8.5V2.38281H61.5146V8.5H57.7852ZM61.4004 8.5V2.38281H65.1299V8.5H61.4004ZM65.0156 8.5V2.38281H68.7451V8.5H65.0156ZM68.6309 8.5V2.38281H72.3604V8.5H68.6309ZM72.2461 8.5V2.38281H75.9756V8.5H72.2461ZM75.8613 8.5V2.38281H79.5908V8.5H75.8613ZM79.4766 8.5V2.38281H83.2061V8.5H79.4766ZM83.0918 8.5V2.38281H86.8213V8.5H83.0918ZM88.8047 8.81055V5.04297H86.707V4.53906H89.2734V8.81055H88.8047ZM87.8672 8.81055V6.05078H86.707V5.54688H88.3359V8.81055H87.8672ZM93.9375 8.5V2.38281H97.667V8.5H93.9375ZM97.5527 8.5V2.38281H101.282V8.5H97.5527ZM101.168 8.5V2.38281H104.897V8.5H101.168ZM104.783 8.5V2.38281H108.513V8.5H104.783ZM108.398 8.5V2.38281H112.128V8.5H108.398ZM114.111 8.81055V5.04297H112.014V4.53906H114.58V8.81055H114.111ZM113.174 8.81055V6.05078H112.014V5.54688H113.643V8.81055H113.174ZM119.244 8.5V2.38281H122.974V8.5H119.244ZM122.859 8.5V2.38281H126.589V8.5H122.859ZM126.475 8.5V2.38281H130.204V8.5H126.475ZM132.188 8.81055V5.04297H130.09V4.53906H132.656V8.81055H132.188ZM131.25 8.81055V6.05078H130.09V5.54688H131.719V8.81055H131.25ZM144.551 8.5V2.38281H148.28V8.5H144.551ZM148.166 8.5V2.38281H151.896V8.5H148.166ZM151.781 8.5V2.38281H155.511V8.5H151.781ZM157.494 8.81055V5.04297H155.396V4.53906H157.963V8.81055H157.494ZM156.557 8.81055V6.05078H155.396V5.54688H157.025V8.81055H156.557ZM162.627 8.5V2.38281H166.356V8.5H162.627ZM166.242 8.5V2.38281H169.972V8.5H166.242ZM169.857 8.5V2.38281H173.587V8.5H169.857ZM173.473 8.5V2.38281H177.202V8.5H173.473ZM177.088 8.5V2.38281H180.817V8.5H177.088ZM182.801 8.81055V5.04297H180.703V4.53906H183.27V8.81055H182.801ZM181.863 8.81055V6.05078H180.703V5.54688H182.332V8.81055H181.863ZM187.934 8.5V2.38281H191.663V8.5H187.934ZM191.549 8.5V2.38281H195.278V8.5H191.549ZM197.262 8.81055V5.04297H195.164V4.53906H197.73V8.81055H197.262ZM196.324 8.81055V6.05078H195.164V5.54688H196.793V8.81055H196.324ZM206.01 8.5V2.38281H209.739V8.5H206.01ZM209.625 8.5V2.38281H213.354V8.5H209.625ZM215.338 8.81055V5.04297H213.24V4.53906H215.807V8.81055H215.338ZM214.4 8.81055V6.05078H213.24V5.54688H214.869V8.81055H214.4ZM-0.0585938 15.5V9.38281H3.6709V15.5H-0.0585938ZM3.55664 15.5V9.38281H7.28613V15.5H3.55664ZM8.33203 15.8105V11.5391H10.9014V12.043H8.80078V15.8105H8.33203ZM9.26953 15.8105V12.5469H10.9014V13.0508H9.73828V15.8105H9.26953ZM10.7871 12.043V11.5391H14.5166V12.043H10.7871ZM10.7871 13.0508V12.5469H14.5166V13.0508H10.7871ZM14.4023 12.043V11.5391H18.1318V12.043H14.4023ZM14.4023 13.0508V12.5469H18.1318V13.0508H14.4023ZM18.0176 15.5V9.38281H21.7471V15.5H18.0176ZM21.6328 15.5V9.38281H25.3623V15.5H21.6328ZM27.3457 15.8105V12.043H25.248V11.5391H27.8145V15.8105H27.3457ZM26.4082 15.8105V13.0508H25.248V12.5469H26.877V15.8105H26.4082ZM28.8633 15.5V9.38281H32.5928V15.5H28.8633ZM32.4785 15.5V9.38281H36.208V15.5H32.4785ZM37.2539 15.8105V11.5391H39.8232V12.043H37.7227V15.8105H37.2539ZM38.1914 15.8105V12.5469H39.8232V13.0508H38.6602V15.8105H38.1914ZM39.709 12.043V11.5391H43.4385V12.043H39.709ZM39.709 13.0508V12.5469H43.4385V13.0508H39.709ZM43.3242 12.043V11.5391H47.0537V12.043H43.3242ZM43.3242 13.0508V12.5469H47.0537V13.0508H43.3242ZM46.9395 12.043V11.5391H50.6689V12.043H46.9395ZM46.9395 13.0508V12.5469H50.6689V13.0508H46.9395ZM50.5547 12.043V11.5391H54.2842V12.043H50.5547ZM50.5547 13.0508V12.5469H54.2842V13.0508H50.5547ZM54.1699 12.043V11.5391H55.3301V8.16406H55.7988V12.043H54.1699ZM54.1699 13.0508V12.5469H56.2676V8.16406H56.7363V13.0508H54.1699ZM59.8828 12.043V8.16406H60.3516V11.5391H61.5146V12.043H59.8828ZM58.9453 13.0508V8.16406H59.4141V12.5469H61.5146V13.0508H58.9453ZM61.4004 12.043V11.5391H65.1299V12.043H61.4004ZM61.4004 13.0508V12.5469H65.1299V13.0508H61.4004ZM65.0156 12.043V11.5391H68.7451V12.043H65.0156ZM65.0156 13.0508V12.5469H68.7451V13.0508H65.0156ZM68.6309 15.5V9.38281H72.3604V15.5H68.6309ZM72.2461 15.5V9.38281H75.9756V15.5H72.2461ZM77.0215 15.8105V11.5391H79.5908V12.043H77.4902V15.8105H77.0215ZM77.959 15.8105V12.5469H79.5908V13.0508H78.4277V15.8105H77.959ZM79.4766 12.043V11.5391H83.2061V12.043H79.4766ZM79.4766 13.0508V12.5469H83.2061V13.0508H79.4766ZM83.0918 12.043V11.5391H86.8213V12.043H83.0918ZM83.0918 13.0508V12.5469H86.8213V13.0508H83.0918ZM86.707 12.043V11.5391H87.8672V8.16406H88.3359V12.043H86.707ZM86.707 13.0508V12.5469H88.8047V8.16406H89.2734V13.0508H86.707ZM90.3223 15.5V9.38281H94.0518V15.5H90.3223ZM93.9375 15.5V9.38281H97.667V15.5H93.9375ZM98.7129 15.8105V11.5391H101.282V12.043H99.1816V15.8105H98.7129ZM99.6504 15.8105V12.5469H101.282V13.0508H100.119V15.8105H99.6504ZM101.168 12.043V11.5391H104.897V12.043H101.168ZM101.168 13.0508V12.5469H104.897V13.0508H101.168ZM104.783 12.043V11.5391H108.513V12.043H104.783ZM104.783 13.0508V12.5469H108.513V13.0508H104.783ZM108.398 15.5V9.38281H112.128V15.5H108.398ZM112.014 15.5V9.38281H115.743V15.5H112.014ZM117.727 15.8105V12.043H115.629V11.5391H118.195V15.8105H117.727ZM116.789 15.8105V13.0508H115.629V12.5469H117.258V15.8105H116.789ZM119.244 15.5V9.38281H122.974V15.5H119.244ZM122.859 15.5V9.38281H126.589V15.5H122.859ZM126.475 15.5V9.38281H130.204V15.5H126.475ZM130.09 15.5V9.38281H133.819V15.5H130.09ZM135.803 15.8105V12.043H133.705V11.5391H136.271V15.8105H135.803ZM134.865 15.8105V13.0508H133.705V12.5469H135.334V15.8105H134.865ZM140.936 15.5V9.38281H144.665V15.5H140.936ZM144.551 15.5V9.38281H148.28V15.5H144.551ZM148.166 15.5V9.38281H151.896V15.5H148.166ZM151.781 15.5V9.38281H155.511V15.5H151.781ZM156.557 15.8105V8.16406H157.025V15.8105H156.557ZM157.494 15.8105V8.16406H157.963V15.8105H157.494ZM159.012 15.5V9.38281H162.741V15.5H159.012ZM162.627 15.5V9.38281H166.356V15.5H162.627ZM167.402 15.8105V11.5391H169.972V12.043H167.871V15.8105H167.402ZM168.34 15.8105V12.5469H169.972V13.0508H168.809V15.8105H168.34ZM169.857 12.043V11.5391H173.587V12.043H169.857ZM169.857 13.0508V12.5469H173.587V13.0508H169.857ZM173.473 12.043V11.5391H177.202V12.043H173.473ZM173.473 13.0508V12.5469H177.202V13.0508H173.473ZM177.088 15.5V9.38281H180.817V15.5H177.088ZM180.703 15.5V9.38281H184.433V15.5H180.703ZM186.416 15.8105V12.043H184.318V11.5391H186.885V15.8105H186.416ZM185.479 15.8105V13.0508H184.318V12.5469H185.947V15.8105H185.479ZM190.031 12.043V8.16406H190.5V11.5391H191.663V12.043H190.031ZM189.094 13.0508V8.16406H189.562V12.5469H191.663V13.0508H189.094ZM191.549 15.5V9.38281H195.278V15.5H191.549ZM195.164 15.5V9.38281H198.894V15.5H195.164ZM200.877 15.8105V12.043H198.779V11.5391H201.346V15.8105H200.877ZM199.939 15.8105V13.0508H198.779V12.5469H200.408V15.8105H199.939ZM202.395 15.5V9.38281H206.124V15.5H202.395ZM206.01 15.5V9.38281H209.739V15.5H206.01ZM210.785 15.8105V11.5391H213.354V12.043H211.254V15.8105H210.785ZM211.723 15.8105V12.5469H213.354V13.0508H212.191V15.8105H211.723ZM213.24 12.043V11.5391H214.4V8.16406H214.869V12.043H213.24ZM213.24 13.0508V12.5469H215.338V8.16406H215.807V13.0508H213.24ZM-0.0585938 22.5V16.3828H3.6709V22.5H-0.0585938ZM3.55664 22.5V16.3828H7.28613V22.5H3.55664ZM7.17188 22.5V16.3828H10.9014V22.5H7.17188ZM10.7871 22.5V16.3828H14.5166V22.5H10.7871ZM14.4023 22.5V16.3828H18.1318V22.5H14.4023ZM18.0176 22.5V16.3828H21.7471V22.5H18.0176ZM22.793 22.8105V18.5391H25.3623V19.043H23.2617V22.8105H22.793ZM23.7305 22.8105V19.5469H25.3623V20.0508H24.1992V22.8105H23.7305ZM25.248 19.043V18.5391H26.4082V15.1641H26.877V19.043H25.248ZM25.248 20.0508V19.5469H27.3457V15.1641H27.8145V20.0508H25.248ZM28.8633 22.5V16.3828H32.5928V22.5H28.8633ZM32.4785 22.5V16.3828H36.208V22.5H32.4785ZM36.0938 22.5V16.3828H39.8232V22.5H36.0938ZM39.709 22.5V16.3828H43.4385V22.5H39.709ZM43.3242 22.5V16.3828H47.0537V22.5H43.3242ZM49.0371 22.8105V19.043H46.9395V18.5391H49.5059V22.8105H49.0371ZM48.0996 22.8105V20.0508H46.9395V19.5469H48.5684V22.8105H48.0996ZM68.6309 22.5V16.3828H72.3604V22.5H68.6309ZM72.2461 22.5V16.3828H75.9756V22.5H72.2461ZM77.0215 22.8105V15.1641H77.4902V22.8105H77.0215ZM77.959 22.8105V15.1641H78.4277V22.8105H77.959ZM90.3223 22.5V16.3828H94.0518V22.5H90.3223ZM93.9375 22.5V16.3828H97.667V22.5H93.9375ZM97.5527 22.5V16.3828H101.282V22.5H97.5527ZM101.168 22.5V16.3828H104.897V22.5H101.168ZM104.783 22.5V16.3828H108.513V22.5H104.783ZM108.398 22.5V16.3828H112.128V22.5H108.398ZM112.014 22.5V16.3828H115.743V22.5H112.014ZM116.789 22.8105V15.1641H117.258V22.8105H116.789ZM117.727 22.8105V15.1641H118.195V22.8105H117.727ZM119.244 22.5V16.3828H122.974V22.5H119.244ZM122.859 22.5V16.3828H126.589V22.5H122.859ZM127.635 22.8105V18.5391H130.204V19.043H128.104V22.8105H127.635ZM128.572 22.8105V19.5469H130.204V20.0508H129.041V22.8105H128.572ZM130.09 22.5V16.3828H133.819V22.5H130.09ZM133.705 22.5V16.3828H137.435V22.5H133.705ZM137.32 22.5V16.3828H141.05V22.5H137.32ZM140.936 22.5V16.3828H144.665V22.5H140.936ZM145.711 22.8105V18.5391H148.28V19.043H146.18V22.8105H145.711ZM146.648 22.8105V19.5469H148.28V20.0508H147.117V22.8105H146.648ZM148.166 22.5V16.3828H151.896V22.5H148.166ZM151.781 22.5V16.3828H155.511V22.5H151.781ZM156.557 22.8105V15.1641H157.025V22.8105H156.557ZM157.494 22.8105V15.1641H157.963V22.8105H157.494ZM159.012 22.5V16.3828H162.741V22.5H159.012ZM162.627 22.5V16.3828H166.356V22.5H162.627ZM166.242 22.5V16.3828H169.972V22.5H166.242ZM169.857 22.5V16.3828H173.587V22.5H169.857ZM173.473 22.5V16.3828H177.202V22.5H173.473ZM177.088 22.5V16.3828H180.817V22.5H177.088ZM180.703 22.5V16.3828H184.433V22.5H180.703ZM185.479 22.8105V15.1641H185.947V22.8105H185.479ZM186.416 22.8105V15.1641H186.885V22.8105H186.416ZM193.646 19.043V15.1641H194.115V18.5391H195.278V19.043H193.646ZM192.709 20.0508V15.1641H193.178V19.5469H195.278V20.0508H192.709ZM195.164 22.5V16.3828H198.894V22.5H195.164ZM198.779 22.5V16.3828H202.509V22.5H198.779ZM202.395 22.5V16.3828H206.124V22.5H202.395ZM207.17 22.8105V18.5391H209.739V19.043H207.639V22.8105H207.17ZM208.107 22.8105V19.5469H209.739V20.0508H208.576V22.8105H208.107ZM209.625 19.043V18.5391H210.785V15.1641H211.254V19.043H209.625ZM209.625 20.0508V19.5469H211.723V15.1641H212.191V20.0508H209.625ZM-0.0585938 29.5V23.3828H3.6709V29.5H-0.0585938ZM3.55664 29.5V23.3828H7.28613V29.5H3.55664ZM8.33203 29.8105V25.5391H10.9014V26.043H8.80078V29.8105H8.33203ZM9.26953 29.8105V26.5469H10.9014V27.0508H9.73828V29.8105H9.26953ZM10.7871 26.043V25.5391H14.5166V26.043H10.7871ZM10.7871 27.0508V26.5469H14.5166V27.0508H10.7871ZM14.4023 26.043V25.5391H18.1318V26.043H14.4023ZM14.4023 27.0508V26.5469H18.1318V27.0508H14.4023ZM18.0176 29.5V23.3828H21.7471V29.5H18.0176ZM21.6328 29.5V23.3828H25.3623V29.5H21.6328ZM27.3457 29.8105V26.043H25.248V25.5391H27.8145V29.8105H27.3457ZM26.4082 29.8105V27.0508H25.248V26.5469H26.877V29.8105H26.4082ZM28.8633 29.5V23.3828H32.5928V29.5H28.8633ZM32.4785 29.5V23.3828H36.208V29.5H32.4785ZM37.2539 29.8105V25.5391H39.8232V26.043H37.7227V29.8105H37.2539ZM38.1914 29.8105V26.5469H39.8232V27.0508H38.6602V29.8105H38.1914ZM39.709 26.043V25.5391H43.4385V26.043H39.709ZM39.709 27.0508V26.5469H43.4385V27.0508H39.709ZM43.3242 26.043V25.5391H47.0537V26.043H43.3242ZM43.3242 27.0508V26.5469H47.0537V27.0508H43.3242ZM46.9395 26.043V25.5391H48.0996V22.1641H48.5684V26.043H46.9395ZM46.9395 27.0508V26.5469H49.0371V22.1641H49.5059V27.0508H46.9395ZM68.6309 29.5V23.3828H72.3604V29.5H68.6309ZM72.2461 29.5V23.3828H75.9756V29.5H72.2461ZM77.0215 29.8105V22.1641H77.4902V29.8105H77.0215ZM77.959 29.8105V22.1641H78.4277V29.8105H77.959ZM90.3223 29.5V23.3828H94.0518V29.5H90.3223ZM93.9375 29.5V23.3828H97.667V29.5H93.9375ZM98.7129 29.8105V25.5391H101.282V26.043H99.1816V29.8105H98.7129ZM99.6504 29.8105V26.5469H101.282V27.0508H100.119V29.8105H99.6504ZM101.168 26.043V25.5391H104.897V26.043H101.168ZM101.168 27.0508V26.5469H104.897V27.0508H101.168ZM104.783 26.043V25.5391H108.513V26.043H104.783ZM104.783 27.0508V26.5469H108.513V27.0508H104.783ZM108.398 29.5V23.3828H112.128V29.5H108.398ZM112.014 29.5V23.3828H115.743V29.5H112.014ZM116.789 29.8105V22.1641H117.258V29.8105H116.789ZM117.727 29.8105V22.1641H118.195V29.8105H117.727ZM119.244 29.5V23.3828H122.974V29.5H119.244ZM122.859 29.5V23.3828H126.589V29.5H122.859ZM127.635 29.8105V22.1641H128.104V29.8105H127.635ZM128.572 29.8105V22.1641H129.041V29.8105H128.572ZM132.188 26.043V22.1641H132.656V25.5391H133.819V26.043H132.188ZM131.25 27.0508V22.1641H131.719V26.5469H133.819V27.0508H131.25ZM133.705 29.5V23.3828H137.435V29.5H133.705ZM137.32 29.5V23.3828H141.05V29.5H137.32ZM142.096 29.8105V25.5391H144.665V26.043H142.564V29.8105H142.096ZM143.033 29.8105V26.5469H144.665V27.0508H143.502V29.8105H143.033ZM144.551 26.043V25.5391H145.711V22.1641H146.18V26.043H144.551ZM144.551 27.0508V26.5469H146.648V22.1641H147.117V27.0508H144.551ZM148.166 29.5V23.3828H151.896V29.5H148.166ZM151.781 29.5V23.3828H155.511V29.5H151.781ZM156.557 29.8105V22.1641H157.025V29.8105H156.557ZM157.494 29.8105V22.1641H157.963V29.8105H157.494ZM159.012 29.5V23.3828H162.741V29.5H159.012ZM162.627 29.5V23.3828H166.356V29.5H162.627ZM167.402 29.8105V25.5391H169.972V26.043H167.871V29.8105H167.402ZM168.34 29.8105V26.5469H169.972V27.0508H168.809V29.8105H168.34ZM169.857 26.043V25.5391H173.587V26.043H169.857ZM169.857 27.0508V26.5469H173.587V27.0508H169.857ZM173.473 26.043V25.5391H177.202V26.043H173.473ZM173.473 27.0508V26.5469H177.202V27.0508H173.473ZM177.088 29.5V23.3828H180.817V29.5H177.088ZM180.703 29.5V23.3828H184.433V29.5H180.703ZM185.479 29.8105V22.1641H185.947V29.8105H185.479ZM186.416 29.8105V22.1641H186.885V29.8105H186.416ZM191.549 29.5V23.3828H195.278V29.5H191.549ZM195.164 29.5V23.3828H198.894V29.5H195.164ZM199.939 29.8105V25.5391H202.509V26.043H200.408V29.8105H199.939ZM200.877 29.8105V26.5469H202.509V27.0508H201.346V29.8105H200.877ZM202.395 29.5V23.3828H206.124V29.5H202.395ZM206.01 29.5V23.3828H209.739V29.5H206.01ZM211.723 29.8105V26.043H209.625V25.5391H212.191V29.8105H211.723ZM210.785 29.8105V27.0508H209.625V26.5469H211.254V29.8105H210.785ZM-0.0585938 36.5V30.3828H3.6709V36.5H-0.0585938ZM3.55664 36.5V30.3828H7.28613V36.5H3.55664ZM7.17188 36.5V30.3828H10.9014V36.5H7.17188ZM10.7871 36.5V30.3828H14.5166V36.5H10.7871ZM14.4023 36.5V30.3828H18.1318V36.5H14.4023ZM18.0176 36.5V30.3828H21.7471V36.5H18.0176ZM22.793 36.8105V32.5391H25.3623V33.043H23.2617V36.8105H22.793ZM23.7305 36.8105V33.5469H25.3623V34.0508H24.1992V36.8105H23.7305ZM25.248 33.043V32.5391H26.4082V29.1641H26.877V33.043H25.248ZM25.248 34.0508V33.5469H27.3457V29.1641H27.8145V34.0508H25.248ZM28.8633 36.5V30.3828H32.5928V36.5H28.8633ZM32.4785 36.5V30.3828H36.208V36.5H32.4785ZM36.0938 36.5V30.3828H39.8232V36.5H36.0938ZM39.709 36.5V30.3828H43.4385V36.5H39.709ZM43.3242 36.5V30.3828H47.0537V36.5H43.3242ZM46.9395 36.5V30.3828H50.6689V36.5H46.9395ZM50.5547 36.5V30.3828H54.2842V36.5H50.5547ZM56.2676 36.8105V33.043H54.1699V32.5391H56.7363V36.8105H56.2676ZM55.3301 36.8105V34.0508H54.1699V33.5469H55.7988V36.8105H55.3301ZM68.6309 36.5V30.3828H72.3604V36.5H68.6309ZM72.2461 36.5V30.3828H75.9756V36.5H72.2461ZM77.0215 36.8105V29.1641H77.4902V36.8105H77.0215ZM77.959 36.8105V29.1641H78.4277V36.8105H77.959ZM90.3223 36.5V30.3828H94.0518V36.5H90.3223ZM93.9375 36.5V30.3828H97.667V36.5H93.9375ZM98.7129 36.8105V29.1641H99.1816V36.8105H98.7129ZM99.6504 36.8105V29.1641H100.119V36.8105H99.6504ZM108.398 36.5V30.3828H112.128V36.5H108.398ZM112.014 36.5V30.3828H115.743V36.5H112.014ZM116.789 36.8105V29.1641H117.258V36.8105H116.789ZM117.727 36.8105V29.1641H118.195V36.8105H117.727ZM119.244 36.5V30.3828H122.974V36.5H119.244ZM122.859 36.5V30.3828H126.589V36.5H122.859ZM127.635 36.8105V29.1641H128.104V36.8105H127.635ZM128.572 36.8105V29.1641H129.041V36.8105H128.572ZM135.803 33.043V29.1641H136.271V32.5391H137.435V33.043H135.803ZM134.865 34.0508V29.1641H135.334V33.5469H137.435V34.0508H134.865ZM137.32 33.043V32.5391H141.05V33.043H137.32ZM137.32 34.0508V33.5469H141.05V34.0508H137.32ZM140.936 33.043V32.5391H142.096V29.1641H142.564V33.043H140.936ZM140.936 34.0508V33.5469H143.033V29.1641H143.502V34.0508H140.936ZM148.166 36.5V30.3828H151.896V36.5H148.166ZM151.781 36.5V30.3828H155.511V36.5H151.781ZM156.557 36.8105V29.1641H157.025V36.8105H156.557ZM157.494 36.8105V29.1641H157.963V36.8105H157.494ZM159.012 36.5V30.3828H162.741V36.5H159.012ZM162.627 36.5V30.3828H166.356V36.5H162.627ZM167.402 36.8105V29.1641H167.871V36.8105H167.402ZM168.34 36.8105V29.1641H168.809V36.8105H168.34ZM177.088 36.5V30.3828H180.817V36.5H177.088ZM180.703 36.5V30.3828H184.433V36.5H180.703ZM185.479 36.8105V29.1641H185.947V36.8105H185.479ZM186.416 36.8105V29.1641H186.885V36.8105H186.416ZM187.934 36.5V30.3828H191.663V36.5H187.934ZM191.549 36.5V30.3828H195.278V36.5H191.549ZM196.324 36.8105V32.5391H198.894V33.043H196.793V36.8105H196.324ZM197.262 36.8105V33.5469H198.894V34.0508H197.73V36.8105H197.262ZM198.779 33.043V32.5391H199.939V29.1641H200.408V33.043H198.779ZM198.779 34.0508V33.5469H200.877V29.1641H201.346V34.0508H198.779ZM206.01 36.5V30.3828H209.739V36.5H206.01ZM209.625 36.5V30.3828H213.354V36.5H209.625ZM215.338 36.8105V33.043H213.24V32.5391H215.807V36.8105H215.338ZM214.4 36.8105V34.0508H213.24V33.5469H214.869V36.8105H214.4ZM2.03906 40.043V36.1641H2.50781V39.5391H3.6709V40.043H2.03906ZM1.10156 41.0508V36.1641H1.57031V40.5469H3.6709V41.0508H1.10156ZM3.55664 40.043V39.5391H7.28613V40.043H3.55664ZM3.55664 41.0508V40.5469H7.28613V41.0508H3.55664ZM7.17188 40.043V39.5391H10.9014V40.043H7.17188ZM7.17188 41.0508V40.5469H10.9014V41.0508H7.17188ZM10.7871 40.043V39.5391H14.5166V40.043H10.7871ZM10.7871 41.0508V40.5469H14.5166V41.0508H10.7871ZM14.4023 40.043V39.5391H18.1318V40.043H14.4023ZM14.4023 41.0508V40.5469H18.1318V41.0508H14.4023ZM18.0176 40.043V39.5391H21.7471V40.043H18.0176ZM18.0176 41.0508V40.5469H21.7471V41.0508H18.0176ZM21.6328 40.043V39.5391H22.793V36.1641H23.2617V40.043H21.6328ZM21.6328 41.0508V40.5469H23.7305V36.1641H24.1992V41.0508H21.6328ZM30.9609 40.043V36.1641H31.4297V39.5391H32.5928V40.043H30.9609ZM30.0234 41.0508V36.1641H30.4922V40.5469H32.5928V41.0508H30.0234ZM32.4785 40.043V39.5391H36.208V40.043H32.4785ZM32.4785 41.0508V40.5469H36.208V41.0508H32.4785ZM36.0938 40.043V39.5391H39.8232V40.043H36.0938ZM36.0938 41.0508V40.5469H39.8232V41.0508H36.0938ZM39.709 40.043V39.5391H43.4385V40.043H39.709ZM39.709 41.0508V40.5469H43.4385V41.0508H39.709ZM43.3242 40.043V39.5391H47.0537V40.043H43.3242ZM43.3242 41.0508V40.5469H47.0537V41.0508H43.3242ZM46.9395 40.043V39.5391H50.6689V40.043H46.9395ZM46.9395 41.0508V40.5469H50.6689V41.0508H46.9395ZM50.5547 40.043V39.5391H54.2842V40.043H50.5547ZM50.5547 41.0508V40.5469H54.2842V41.0508H50.5547ZM54.1699 40.043V39.5391H55.3301V36.1641H55.7988V40.043H54.1699ZM54.1699 41.0508V40.5469H56.2676V36.1641H56.7363V41.0508H54.1699ZM70.7285 40.043V36.1641H71.1973V39.5391H72.3604V40.043H70.7285ZM69.791 41.0508V36.1641H70.2598V40.5469H72.3604V41.0508H69.791ZM72.2461 40.043V39.5391H75.9756V40.043H72.2461ZM72.2461 41.0508V40.5469H75.9756V41.0508H72.2461ZM75.8613 40.043V39.5391H77.0215V36.1641H77.4902V40.043H75.8613ZM75.8613 41.0508V40.5469H77.959V36.1641H78.4277V41.0508H75.8613ZM92.4199 40.043V36.1641H92.8887V39.5391H94.0518V40.043H92.4199ZM91.4824 41.0508V36.1641H91.9512V40.5469H94.0518V41.0508H91.4824ZM93.9375 40.043V39.5391H97.667V40.043H93.9375ZM93.9375 41.0508V40.5469H97.667V41.0508H93.9375ZM97.5527 40.043V39.5391H98.7129V36.1641H99.1816V40.043H97.5527ZM97.5527 41.0508V40.5469H99.6504V36.1641H100.119V41.0508H97.5527ZM110.496 40.043V36.1641H110.965V39.5391H112.128V40.043H110.496ZM109.559 41.0508V36.1641H110.027V40.5469H112.128V41.0508H109.559ZM112.014 40.043V39.5391H115.743V40.043H112.014ZM112.014 41.0508V40.5469H115.743V41.0508H112.014ZM115.629 40.043V39.5391H116.789V36.1641H117.258V40.043H115.629ZM115.629 41.0508V40.5469H117.727V36.1641H118.195V41.0508H115.629ZM121.342 40.043V36.1641H121.811V39.5391H122.974V40.043H121.342ZM120.404 41.0508V36.1641H120.873V40.5469H122.974V41.0508H120.404ZM122.859 40.043V39.5391H126.589V40.043H122.859ZM122.859 41.0508V40.5469H126.589V41.0508H122.859ZM126.475 40.043V39.5391H127.635V36.1641H128.104V40.043H126.475ZM126.475 41.0508V40.5469H128.572V36.1641H129.041V41.0508H126.475ZM150.264 40.043V36.1641H150.732V39.5391H151.896V40.043H150.264ZM149.326 41.0508V36.1641H149.795V40.5469H151.896V41.0508H149.326ZM151.781 40.043V39.5391H155.511V40.043H151.781ZM151.781 41.0508V40.5469H155.511V41.0508H151.781ZM155.396 40.043V39.5391H156.557V36.1641H157.025V40.043H155.396ZM155.396 41.0508V40.5469H157.494V36.1641H157.963V41.0508H155.396ZM161.109 40.043V36.1641H161.578V39.5391H162.741V40.043H161.109ZM160.172 41.0508V36.1641H160.641V40.5469H162.741V41.0508H160.172ZM162.627 40.043V39.5391H166.356V40.043H162.627ZM162.627 41.0508V40.5469H166.356V41.0508H162.627ZM166.242 40.043V39.5391H167.402V36.1641H167.871V40.043H166.242ZM166.242 41.0508V40.5469H168.34V36.1641H168.809V41.0508H166.242ZM179.186 40.043V36.1641H179.654V39.5391H180.817V40.043H179.186ZM178.248 41.0508V36.1641H178.717V40.5469H180.817V41.0508H178.248ZM180.703 40.043V39.5391H184.433V40.043H180.703ZM180.703 41.0508V40.5469H184.433V41.0508H180.703ZM184.318 40.043V39.5391H185.479V36.1641H185.947V40.043H184.318ZM184.318 41.0508V40.5469H186.416V36.1641H186.885V41.0508H184.318ZM190.031 40.043V36.1641H190.5V39.5391H191.663V40.043H190.031ZM189.094 41.0508V36.1641H189.562V40.5469H191.663V41.0508H189.094ZM191.549 40.043V39.5391H195.278V40.043H191.549ZM191.549 41.0508V40.5469H195.278V41.0508H191.549ZM195.164 40.043V39.5391H196.324V36.1641H196.793V40.043H195.164ZM195.164 41.0508V40.5469H197.262V36.1641H197.73V41.0508H195.164ZM208.107 40.043V36.1641H208.576V39.5391H209.739V40.043H208.107ZM207.17 41.0508V36.1641H207.639V40.5469H209.739V41.0508H207.17ZM209.625 40.043V39.5391H213.354V40.043H209.625ZM209.625 41.0508V40.5469H213.354V41.0508H209.625ZM213.24 40.043V39.5391H214.4V36.1641H214.869V40.043H213.24ZM213.24 41.0508V40.5469H215.338V36.1641H215.807V41.0508H213.24Z" fill="#9370DB"/>
</g>
<defs>
<clipPath id="clip0_7_265">
<rect width="216" height="42" fill="white"/>
</clipPath>
</defs>
</svg>
