<svg width="128" height="128" viewBox="0 0 128 128" fill="none" xmlns="http://www.w3.org/2000/svg">
<g clip-path="url(#clip0_7_262)">
<rect width="128" height="128" rx="10" fill="#202020"/>
<path d="M34.8828 36V23.7656H42.3418V36H34.8828ZM42.1133 36V23.7656H49.5723V36H42.1133ZM49.3438 36V23.7656H56.8027V36H49.3438ZM56.5742 36V23.7656H64.0332V36H56.5742ZM63.8047 36V23.7656H71.2637V36H63.8047ZM71.0352 36V23.7656H78.4941V36H71.0352ZM82.4609 36.6211V29.0859H78.2656V28.0781H83.3984V36.6211H82.4609ZM80.5859 36.6211V31.1016H78.2656V30.0938H81.5234V36.6211H80.5859ZM34.8828 50V37.7656H42.3418V50H34.8828ZM42.1133 50V37.7656H49.5723V50H42.1133ZM51.6641 50.6211V42.0781H56.8027V43.0859H52.6016V50.6211H51.6641ZM53.5391 50.6211V44.0938H56.8027V45.1016H54.4766V50.6211H53.5391ZM56.5742 43.0859V42.0781H64.0332V43.0859H56.5742ZM56.5742 45.1016V44.0938H64.0332V45.1016H56.5742ZM63.8047 43.0859V42.0781H71.2637V43.0859H63.8047ZM63.8047 45.1016V44.0938H71.2637V45.1016H63.8047ZM71.0352 50V37.7656H78.4941V50H71.0352ZM78.2656 50V37.7656H85.7246V50H78.2656ZM89.6914 50.6211V43.0859H85.4961V42.0781H90.6289V50.6211H89.6914ZM87.8164 50.6211V45.1016H85.4961V44.0938H88.7539V50.6211H87.8164ZM34.8828 64V51.7656H42.3418V64H34.8828ZM42.1133 64V51.7656H49.5723V64H42.1133ZM49.3438 64V51.7656H56.8027V64H49.3438ZM56.5742 64V51.7656H64.0332V64H56.5742ZM63.8047 64V51.7656H71.2637V64H63.8047ZM71.0352 64V51.7656H78.4941V64H71.0352ZM80.5859 64.6211V56.0781H85.7246V57.0859H81.5234V64.6211H80.5859ZM82.4609 64.6211V58.0938H85.7246V59.1016H83.3984V64.6211H82.4609ZM85.4961 57.0859V56.0781H87.8164V49.3281H88.7539V57.0859H85.4961ZM85.4961 59.1016V58.0938H89.6914V49.3281H90.6289V59.1016H85.4961ZM34.8828 78V65.7656H42.3418V78H34.8828ZM42.1133 78V65.7656H49.5723V78H42.1133ZM51.6641 78.6211V70.0781H56.8027V71.0859H52.6016V78.6211H51.6641ZM53.5391 78.6211V72.0938H56.8027V73.1016H54.4766V78.6211H53.5391ZM56.5742 71.0859V70.0781H64.0332V71.0859H56.5742ZM56.5742 73.1016V72.0938H64.0332V73.1016H56.5742ZM63.8047 71.0859V70.0781H71.2637V71.0859H63.8047ZM63.8047 73.1016V72.0938H71.2637V73.1016H63.8047ZM71.0352 78V65.7656H78.4941V78H71.0352ZM78.2656 78V65.7656H85.7246V78H78.2656ZM89.6914 78.6211V71.0859H85.4961V70.0781H90.6289V78.6211H89.6914ZM87.8164 78.6211V73.1016H85.4961V72.0938H88.7539V78.6211H87.8164ZM34.8828 92V79.7656H42.3418V92H34.8828ZM42.1133 92V79.7656H49.5723V92H42.1133ZM49.3438 92V79.7656H56.8027V92H49.3438ZM56.5742 92V79.7656H64.0332V92H56.5742ZM63.8047 92V79.7656H71.2637V92H63.8047ZM71.0352 92V79.7656H78.4941V92H71.0352ZM80.5859 92.6211V84.0781H85.7246V85.0859H81.5234V92.6211H80.5859ZM82.4609 92.6211V86.0938H85.7246V87.1016H83.3984V92.6211H82.4609ZM85.4961 85.0859V84.0781H87.8164V77.3281H88.7539V85.0859H85.4961ZM85.4961 87.1016V86.0938H89.6914V77.3281H90.6289V87.1016H85.4961ZM39.0781 99.0859V91.3281H40.0156V98.0781H42.3418V99.0859H39.0781ZM37.2031 101.102V91.3281H38.1406V100.094H42.3418V101.102H37.2031ZM42.1133 99.0859V98.0781H49.5723V99.0859H42.1133ZM42.1133 101.102V100.094H49.5723V101.102H42.1133ZM49.3438 99.0859V98.0781H56.8027V99.0859H49.3438ZM49.3438 101.102V100.094H56.8027V101.102H49.3438ZM56.5742 99.0859V98.0781H64.0332V99.0859H56.5742ZM56.5742 101.102V100.094H64.0332V101.102H56.5742ZM63.8047 99.0859V98.0781H71.2637V99.0859H63.8047ZM63.8047 101.102V100.094H71.2637V101.102H63.8047ZM71.0352 99.0859V98.0781H78.4941V99.0859H71.0352ZM71.0352 101.102V100.094H78.4941V101.102H71.0352ZM78.2656 99.0859V98.0781H80.5859V91.3281H81.5234V99.0859H78.2656ZM78.2656 101.102V100.094H82.4609V91.3281H83.3984V101.102H78.2656Z" fill="#9370DB"/>
</g>
<defs>
<clipPath id="clip0_7_262">
<rect width="128" height="128" fill="white"/>
</clipPath>
</defs>
</svg>
