<svg width="234" height="56" viewBox="0 0 234 56" fill="none" xmlns="http://www.w3.org/2000/svg">
<g clip-path="url(#clip0_7_265)">
<path d="M7.94141 15.5V9.38281H11.6709V15.5H7.94141ZM11.5566 15.5V9.38281H15.2861V15.5H11.5566ZM15.1719 15.5V9.38281H18.9014V15.5H15.1719ZM18.7871 15.5V9.38281H22.5166V15.5H18.7871ZM22.4023 15.5V9.38281H26.1318V15.5H22.4023ZM26.0176 15.5V9.38281H29.7471V15.5H26.0176ZM31.7305 15.8105V12.043H29.6328V11.5391H32.1992V15.8105H31.7305ZM30.793 15.8105V13.0508H29.6328V12.5469H31.2617V15.8105H30.793ZM36.8633 15.5V9.38281H40.5928V15.5H36.8633ZM40.4785 15.5V9.38281H44.208V15.5H40.4785ZM44.0938 15.5V9.38281H47.8232V15.5H44.0938ZM47.709 15.5V9.38281H51.4385V15.5H47.709ZM51.3242 15.5V9.38281H55.0537V15.5H51.3242ZM54.9395 15.5V9.38281H58.6689V15.5H54.9395ZM58.5547 15.5V9.38281H62.2842V15.5H58.5547ZM64.2676 15.8105V12.043H62.1699V11.5391H64.7363V15.8105H64.2676ZM63.3301 15.8105V13.0508H62.1699V12.5469H63.7988V15.8105H63.3301ZM65.7852 15.5V9.38281H69.5146V15.5H65.7852ZM69.4004 15.5V9.38281H73.1299V15.5H69.4004ZM73.0156 15.5V9.38281H76.7451V15.5H73.0156ZM76.6309 15.5V9.38281H80.3604V15.5H76.6309ZM80.2461 15.5V9.38281H83.9756V15.5H80.2461ZM83.8613 15.5V9.38281H87.5908V15.5H83.8613ZM87.4766 15.5V9.38281H91.2061V15.5H87.4766ZM91.0918 15.5V9.38281H94.8213V15.5H91.0918ZM96.8047 15.8105V12.043H94.707V11.5391H97.2734V15.8105H96.8047ZM95.8672 15.8105V13.0508H94.707V12.5469H96.3359V15.8105H95.8672ZM101.938 15.5V9.38281H105.667V15.5H101.938ZM105.553 15.5V9.38281H109.282V15.5H105.553ZM109.168 15.5V9.38281H112.897V15.5H109.168ZM112.783 15.5V9.38281H116.513V15.5H112.783ZM116.398 15.5V9.38281H120.128V15.5H116.398ZM122.111 15.8105V12.043H120.014V11.5391H122.58V15.8105H122.111ZM121.174 15.8105V13.0508H120.014V12.5469H121.643V15.8105H121.174ZM127.244 15.5V9.38281H130.974V15.5H127.244ZM130.859 15.5V9.38281H134.589V15.5H130.859ZM134.475 15.5V9.38281H138.204V15.5H134.475ZM140.188 15.8105V12.043H138.09V11.5391H140.656V15.8105H140.188ZM139.25 15.8105V13.0508H138.09V12.5469H139.719V15.8105H139.25ZM152.551 15.5V9.38281H156.28V15.5H152.551ZM156.166 15.5V9.38281H159.896V15.5H156.166ZM159.781 15.5V9.38281H163.511V15.5H159.781ZM165.494 15.8105V12.043H163.396V11.5391H165.963V15.8105H165.494ZM164.557 15.8105V13.0508H163.396V12.5469H165.025V15.8105H164.557ZM170.627 15.5V9.38281H174.356V15.5H170.627ZM174.242 15.5V9.38281H177.972V15.5H174.242ZM177.857 15.5V9.38281H181.587V15.5H177.857ZM181.473 15.5V9.38281H185.202V15.5H181.473ZM185.088 15.5V9.38281H188.817V15.5H185.088ZM190.801 15.8105V12.043H188.703V11.5391H191.27V15.8105H190.801ZM189.863 15.8105V13.0508H188.703V12.5469H190.332V15.8105H189.863ZM195.934 15.5V9.38281H199.663V15.5H195.934ZM199.549 15.5V9.38281H203.278V15.5H199.549ZM205.262 15.8105V12.043H203.164V11.5391H205.73V15.8105H205.262ZM204.324 15.8105V13.0508H203.164V12.5469H204.793V15.8105H204.324ZM214.01 15.5V9.38281H217.739V15.5H214.01ZM217.625 15.5V9.38281H221.354V15.5H217.625ZM223.338 15.8105V12.043H221.24V11.5391H223.807V15.8105H223.338ZM222.4 15.8105V13.0508H221.24V12.5469H222.869V15.8105H222.4ZM7.94141 22.5V16.3828H11.6709V22.5H7.94141ZM11.5566 22.5V16.3828H15.2861V22.5H11.5566ZM16.332 22.8105V18.5391H18.9014V19.043H16.8008V22.8105H16.332ZM17.2695 22.8105V19.5469H18.9014V20.0508H17.7383V22.8105H17.2695ZM18.7871 19.043V18.5391H22.5166V19.043H18.7871ZM18.7871 20.0508V19.5469H22.5166V20.0508H18.7871ZM22.4023 19.043V18.5391H26.1318V19.043H22.4023ZM22.4023 20.0508V19.5469H26.1318V20.0508H22.4023ZM26.0176 22.5V16.3828H29.7471V22.5H26.0176ZM29.6328 22.5V16.3828H33.3623V22.5H29.6328ZM35.3457 22.8105V19.043H33.248V18.5391H35.8145V22.8105H35.3457ZM34.4082 22.8105V20.0508H33.248V19.5469H34.877V22.8105H34.4082ZM36.8633 22.5V16.3828H40.5928V22.5H36.8633ZM40.4785 22.5V16.3828H44.208V22.5H40.4785ZM45.2539 22.8105V18.5391H47.8232V19.043H45.7227V22.8105H45.2539ZM46.1914 22.8105V19.5469H47.8232V20.0508H46.6602V22.8105H46.1914ZM47.709 19.043V18.5391H51.4385V19.043H47.709ZM47.709 20.0508V19.5469H51.4385V20.0508H47.709ZM51.3242 19.043V18.5391H55.0537V19.043H51.3242ZM51.3242 20.0508V19.5469H55.0537V20.0508H51.3242ZM54.9395 19.043V18.5391H58.6689V19.043H54.9395ZM54.9395 20.0508V19.5469H58.6689V20.0508H54.9395ZM58.5547 19.043V18.5391H62.2842V19.043H58.5547ZM58.5547 20.0508V19.5469H62.2842V20.0508H58.5547ZM62.1699 19.043V18.5391H63.3301V15.1641H63.7988V19.043H62.1699ZM62.1699 20.0508V19.5469H64.2676V15.1641H64.7363V20.0508H62.1699ZM67.8828 19.043V15.1641H68.3516V18.5391H69.5146V19.043H67.8828ZM66.9453 20.0508V15.1641H67.4141V19.5469H69.5146V20.0508H66.9453ZM69.4004 19.043V18.5391H73.1299V19.043H69.4004ZM69.4004 20.0508V19.5469H73.1299V20.0508H69.4004ZM73.0156 19.043V18.5391H76.7451V19.043H73.0156ZM73.0156 20.0508V19.5469H76.7451V20.0508H73.0156ZM76.6309 22.5V16.3828H80.3604V22.5H76.6309ZM80.2461 22.5V16.3828H83.9756V22.5H80.2461ZM85.0215 22.8105V18.5391H87.5908V19.043H85.4902V22.8105H85.0215ZM85.959 22.8105V19.5469H87.5908V20.0508H86.4277V22.8105H85.959ZM87.4766 19.043V18.5391H91.2061V19.043H87.4766ZM87.4766 20.0508V19.5469H91.2061V20.0508H87.4766ZM91.0918 19.043V18.5391H94.8213V19.043H91.0918ZM91.0918 20.0508V19.5469H94.8213V20.0508H91.0918ZM94.707 19.043V18.5391H95.8672V15.1641H96.3359V19.043H94.707ZM94.707 20.0508V19.5469H96.8047V15.1641H97.2734V20.0508H94.707ZM98.3223 22.5V16.3828H102.052V22.5H98.3223ZM101.938 22.5V16.3828H105.667V22.5H101.938ZM106.713 22.8105V18.5391H109.282V19.043H107.182V22.8105H106.713ZM107.65 22.8105V19.5469H109.282V20.0508H108.119V22.8105H107.65ZM109.168 19.043V18.5391H112.897V19.043H109.168ZM109.168 20.0508V19.5469H112.897V20.0508H109.168ZM112.783 19.043V18.5391H116.513V19.043H112.783ZM112.783 20.0508V19.5469H116.513V20.0508H112.783ZM116.398 22.5V16.3828H120.128V22.5H116.398ZM120.014 22.5V16.3828H123.743V22.5H120.014ZM125.727 22.8105V19.043H123.629V18.5391H126.195V22.8105H125.727ZM124.789 22.8105V20.0508H123.629V19.5469H125.258V22.8105H124.789ZM127.244 22.5V16.3828H130.974V22.5H127.244ZM130.859 22.5V16.3828H134.589V22.5H130.859ZM134.475 22.5V16.3828H138.204V22.5H134.475ZM138.09 22.5V16.3828H141.819V22.5H138.09ZM143.803 22.8105V19.043H141.705V18.5391H144.271V22.8105H143.803ZM142.865 22.8105V20.0508H141.705V19.5469H143.334V22.8105H142.865ZM148.936 22.5V16.3828H152.665V22.5H148.936ZM152.551 22.5V16.3828H156.28V22.5H152.551ZM156.166 22.5V16.3828H159.896V22.5H156.166ZM159.781 22.5V16.3828H163.511V22.5H159.781ZM164.557 22.8105V15.1641H165.025V22.8105H164.557ZM165.494 22.8105V15.1641H165.963V22.8105H165.494ZM167.012 22.5V16.3828H170.741V22.5H167.012ZM170.627 22.5V16.3828H174.356V22.5H170.627ZM175.402 22.8105V18.5391H177.972V19.043H175.871V22.8105H175.402ZM176.34 22.8105V19.5469H177.972V20.0508H176.809V22.8105H176.34ZM177.857 19.043V18.5391H181.587V19.043H177.857ZM177.857 20.0508V19.5469H181.587V20.0508H177.857ZM181.473 19.043V18.5391H185.202V19.043H181.473ZM181.473 20.0508V19.5469H185.202V20.0508H181.473ZM185.088 22.5V16.3828H188.817V22.5H185.088ZM188.703 22.5V16.3828H192.433V22.5H188.703ZM194.416 22.8105V19.043H192.318V18.5391H194.885V22.8105H194.416ZM193.479 22.8105V20.0508H192.318V19.5469H193.947V22.8105H193.479ZM198.031 19.043V15.1641H198.5V18.5391H199.663V19.043H198.031ZM197.094 20.0508V15.1641H197.562V19.5469H199.663V20.0508H197.094ZM199.549 22.5V16.3828H203.278V22.5H199.549ZM203.164 22.5V16.3828H206.894V22.5H203.164ZM208.877 22.8105V19.043H206.779V18.5391H209.346V22.8105H208.877ZM207.939 22.8105V20.0508H206.779V19.5469H208.408V22.8105H207.939ZM210.395 22.5V16.3828H214.124V22.5H210.395ZM214.01 22.5V16.3828H217.739V22.5H214.01ZM218.785 22.8105V18.5391H221.354V19.043H219.254V22.8105H218.785ZM219.723 22.8105V19.5469H221.354V20.0508H220.191V22.8105H219.723ZM221.24 19.043V18.5391H222.4V15.1641H222.869V19.043H221.24ZM221.24 20.0508V19.5469H223.338V15.1641H223.807V20.0508H221.24ZM7.94141 29.5V23.3828H11.6709V29.5H7.94141ZM11.5566 29.5V23.3828H15.2861V29.5H11.5566ZM15.1719 29.5V23.3828H18.9014V29.5H15.1719ZM18.7871 29.5V23.3828H22.5166V29.5H18.7871ZM22.4023 29.5V23.3828H26.1318V29.5H22.4023ZM26.0176 29.5V23.3828H29.7471V29.5H26.0176ZM30.793 29.8105V25.5391H33.3623V26.043H31.2617V29.8105H30.793ZM31.7305 29.8105V26.5469H33.3623V27.0508H32.1992V29.8105H31.7305ZM33.248 26.043V25.5391H34.4082V22.1641H34.877V26.043H33.248ZM33.248 27.0508V26.5469H35.3457V22.1641H35.8145V27.0508H33.248ZM36.8633 29.5V23.3828H40.5928V29.5H36.8633ZM40.4785 29.5V23.3828H44.208V29.5H40.4785ZM44.0938 29.5V23.3828H47.8232V29.5H44.0938ZM47.709 29.5V23.3828H51.4385V29.5H47.709ZM51.3242 29.5V23.3828H55.0537V29.5H51.3242ZM57.0371 29.8105V26.043H54.9395V25.5391H57.5059V29.8105H57.0371ZM56.0996 29.8105V27.0508H54.9395V26.5469H56.5684V29.8105H56.0996ZM76.6309 29.5V23.3828H80.3604V29.5H76.6309ZM80.2461 29.5V23.3828H83.9756V29.5H80.2461ZM85.0215 29.8105V22.1641H85.4902V29.8105H85.0215ZM85.959 29.8105V22.1641H86.4277V29.8105H85.959ZM98.3223 29.5V23.3828H102.052V29.5H98.3223ZM101.938 29.5V23.3828H105.667V29.5H101.938ZM105.553 29.5V23.3828H109.282V29.5H105.553ZM109.168 29.5V23.3828H112.897V29.5H109.168ZM112.783 29.5V23.3828H116.513V29.5H112.783ZM116.398 29.5V23.3828H120.128V29.5H116.398ZM120.014 29.5V23.3828H123.743V29.5H120.014ZM124.789 29.8105V22.1641H125.258V29.8105H124.789ZM125.727 29.8105V22.1641H126.195V29.8105H125.727ZM127.244 29.5V23.3828H130.974V29.5H127.244ZM130.859 29.5V23.3828H134.589V29.5H130.859ZM135.635 29.8105V25.5391H138.204V26.043H136.104V29.8105H135.635ZM136.572 29.8105V26.5469H138.204V27.0508H137.041V29.8105H136.572ZM138.09 29.5V23.3828H141.819V29.5H138.09ZM141.705 29.5V23.3828H145.435V29.5H141.705ZM145.32 29.5V23.3828H149.05V29.5H145.32ZM148.936 29.5V23.3828H152.665V29.5H148.936ZM153.711 29.8105V25.5391H156.28V26.043H154.18V29.8105H153.711ZM154.648 29.8105V26.5469H156.28V27.0508H155.117V29.8105H154.648ZM156.166 29.5V23.3828H159.896V29.5H156.166ZM159.781 29.5V23.3828H163.511V29.5H159.781ZM164.557 29.8105V22.1641H165.025V29.8105H164.557ZM165.494 29.8105V22.1641H165.963V29.8105H165.494ZM167.012 29.5V23.3828H170.741V29.5H167.012ZM170.627 29.5V23.3828H174.356V29.5H170.627ZM174.242 29.5V23.3828H177.972V29.5H174.242ZM177.857 29.5V23.3828H181.587V29.5H177.857ZM181.473 29.5V23.3828H185.202V29.5H181.473ZM185.088 29.5V23.3828H188.817V29.5H185.088ZM188.703 29.5V23.3828H192.433V29.5H188.703ZM193.479 29.8105V22.1641H193.947V29.8105H193.479ZM194.416 29.8105V22.1641H194.885V29.8105H194.416ZM201.646 26.043V22.1641H202.115V25.5391H203.278V26.043H201.646ZM200.709 27.0508V22.1641H201.178V26.5469H203.278V27.0508H200.709ZM203.164 29.5V23.3828H206.894V29.5H203.164ZM206.779 29.5V23.3828H210.509V29.5H206.779ZM210.395 29.5V23.3828H214.124V29.5H210.395ZM215.17 29.8105V25.5391H217.739V26.043H215.639V29.8105H215.17ZM216.107 29.8105V26.5469H217.739V27.0508H216.576V29.8105H216.107ZM217.625 26.043V25.5391H218.785V22.1641H219.254V26.043H217.625ZM217.625 27.0508V26.5469H219.723V22.1641H220.191V27.0508H217.625ZM7.94141 36.5V30.3828H11.6709V36.5H7.94141ZM11.5566 36.5V30.3828H15.2861V36.5H11.5566ZM16.332 36.8105V32.5391H18.9014V33.043H16.8008V36.8105H16.332ZM17.2695 36.8105V33.5469H18.9014V34.0508H17.7383V36.8105H17.2695ZM18.7871 33.043V32.5391H22.5166V33.043H18.7871ZM18.7871 34.0508V33.5469H22.5166V34.0508H18.7871ZM22.4023 33.043V32.5391H26.1318V33.043H22.4023ZM22.4023 34.0508V33.5469H26.1318V34.0508H22.4023ZM26.0176 36.5V30.3828H29.7471V36.5H26.0176ZM29.6328 36.5V30.3828H33.3623V36.5H29.6328ZM35.3457 36.8105V33.043H33.248V32.5391H35.8145V36.8105H35.3457ZM34.4082 36.8105V34.0508H33.248V33.5469H34.877V36.8105H34.4082ZM36.8633 36.5V30.3828H40.5928V36.5H36.8633ZM40.4785 36.5V30.3828H44.208V36.5H40.4785ZM45.2539 36.8105V32.5391H47.8232V33.043H45.7227V36.8105H45.2539ZM46.1914 36.8105V33.5469H47.8232V34.0508H46.6602V36.8105H46.1914ZM47.709 33.043V32.5391H51.4385V33.043H47.709ZM47.709 34.0508V33.5469H51.4385V34.0508H47.709ZM51.3242 33.043V32.5391H55.0537V33.043H51.3242ZM51.3242 34.0508V33.5469H55.0537V34.0508H51.3242ZM54.9395 33.043V32.5391H56.0996V29.1641H56.5684V33.043H54.9395ZM54.9395 34.0508V33.5469H57.0371V29.1641H57.5059V34.0508H54.9395ZM76.6309 36.5V30.3828H80.3604V36.5H76.6309ZM80.2461 36.5V30.3828H83.9756V36.5H80.2461ZM85.0215 36.8105V29.1641H85.4902V36.8105H85.0215ZM85.959 36.8105V29.1641H86.4277V36.8105H85.959ZM98.3223 36.5V30.3828H102.052V36.5H98.3223ZM101.938 36.5V30.3828H105.667V36.5H101.938ZM106.713 36.8105V32.5391H109.282V33.043H107.182V36.8105H106.713ZM107.65 36.8105V33.5469H109.282V34.0508H108.119V36.8105H107.65ZM109.168 33.043V32.5391H112.897V33.043H109.168ZM109.168 34.0508V33.5469H112.897V34.0508H109.168ZM112.783 33.043V32.5391H116.513V33.043H112.783ZM112.783 34.0508V33.5469H116.513V34.0508H112.783ZM116.398 36.5V30.3828H120.128V36.5H116.398ZM120.014 36.5V30.3828H123.743V36.5H120.014ZM124.789 36.8105V29.1641H125.258V36.8105H124.789ZM125.727 36.8105V29.1641H126.195V36.8105H125.727ZM127.244 36.5V30.3828H130.974V36.5H127.244ZM130.859 36.5V30.3828H134.589V36.5H130.859ZM135.635 36.8105V29.1641H136.104V36.8105H135.635ZM136.572 36.8105V29.1641H137.041V36.8105H136.572ZM140.188 33.043V29.1641H140.656V32.5391H141.819V33.043H140.188ZM139.25 34.0508V29.1641H139.719V33.5469H141.819V34.0508H139.25ZM141.705 36.5V30.3828H145.435V36.5H141.705ZM145.32 36.5V30.3828H149.05V36.5H145.32ZM150.096 36.8105V32.5391H152.665V33.043H150.564V36.8105H150.096ZM151.033 36.8105V33.5469H152.665V34.0508H151.502V36.8105H151.033ZM152.551 33.043V32.5391H153.711V29.1641H154.18V33.043H152.551ZM152.551 34.0508V33.5469H154.648V29.1641H155.117V34.0508H152.551ZM156.166 36.5V30.3828H159.896V36.5H156.166ZM159.781 36.5V30.3828H163.511V36.5H159.781ZM164.557 36.8105V29.1641H165.025V36.8105H164.557ZM165.494 36.8105V29.1641H165.963V36.8105H165.494ZM167.012 36.5V30.3828H170.741V36.5H167.012ZM170.627 36.5V30.3828H174.356V36.5H170.627ZM175.402 36.8105V32.5391H177.972V33.043H175.871V36.8105H175.402ZM176.34 36.8105V33.5469H177.972V34.0508H176.809V36.8105H176.34ZM177.857 33.043V32.5391H181.587V33.043H177.857ZM177.857 34.0508V33.5469H181.587V34.0508H177.857ZM181.473 33.043V32.5391H185.202V33.043H181.473ZM181.473 34.0508V33.5469H185.202V34.0508H181.473ZM185.088 36.5V30.3828H188.817V36.5H185.088ZM188.703 36.5V30.3828H192.433V36.5H188.703ZM193.479 36.8105V29.1641H193.947V36.8105H193.479ZM194.416 36.8105V29.1641H194.885V36.8105H194.416ZM199.549 36.5V30.3828H203.278V36.5H199.549ZM203.164 36.5V30.3828H206.894V36.5H203.164ZM207.939 36.8105V32.5391H210.509V33.043H208.408V36.8105H207.939ZM208.877 36.8105V33.5469H210.509V34.0508H209.346V36.8105H208.877ZM210.395 36.5V30.3828H214.124V36.5H210.395ZM214.01 36.5V30.3828H217.739V36.5H214.01ZM219.723 36.8105V33.043H217.625V32.5391H220.191V36.8105H219.723ZM218.785 36.8105V34.0508H217.625V33.5469H219.254V36.8105H218.785ZM7.94141 43.5V37.3828H11.6709V43.5H7.94141ZM11.5566 43.5V37.3828H15.2861V43.5H11.5566ZM15.1719 43.5V37.3828H18.9014V43.5H15.1719ZM18.7871 43.5V37.3828H22.5166V43.5H18.7871ZM22.4023 43.5V37.3828H26.1318V43.5H22.4023ZM26.0176 43.5V37.3828H29.7471V43.5H26.0176ZM30.793 43.8105V39.5391H33.3623V40.043H31.2617V43.8105H30.793ZM31.7305 43.8105V40.5469H33.3623V41.0508H32.1992V43.8105H31.7305ZM33.248 40.043V39.5391H34.4082V36.1641H34.877V40.043H33.248ZM33.248 41.0508V40.5469H35.3457V36.1641H35.8145V41.0508H33.248ZM36.8633 43.5V37.3828H40.5928V43.5H36.8633ZM40.4785 43.5V37.3828H44.208V43.5H40.4785ZM44.0938 43.5V37.3828H47.8232V43.5H44.0938ZM47.709 43.5V37.3828H51.4385V43.5H47.709ZM51.3242 43.5V37.3828H55.0537V43.5H51.3242ZM54.9395 43.5V37.3828H58.6689V43.5H54.9395ZM58.5547 43.5V37.3828H62.2842V43.5H58.5547ZM64.2676 43.8105V40.043H62.1699V39.5391H64.7363V43.8105H64.2676ZM63.3301 43.8105V41.0508H62.1699V40.5469H63.7988V43.8105H63.3301ZM76.6309 43.5V37.3828H80.3604V43.5H76.6309ZM80.2461 43.5V37.3828H83.9756V43.5H80.2461ZM85.0215 43.8105V36.1641H85.4902V43.8105H85.0215ZM85.959 43.8105V36.1641H86.4277V43.8105H85.959ZM98.3223 43.5V37.3828H102.052V43.5H98.3223ZM101.938 43.5V37.3828H105.667V43.5H101.938ZM106.713 43.8105V36.1641H107.182V43.8105H106.713ZM107.65 43.8105V36.1641H108.119V43.8105H107.65ZM116.398 43.5V37.3828H120.128V43.5H116.398ZM120.014 43.5V37.3828H123.743V43.5H120.014ZM124.789 43.8105V36.1641H125.258V43.8105H124.789ZM125.727 43.8105V36.1641H126.195V43.8105H125.727ZM127.244 43.5V37.3828H130.974V43.5H127.244ZM130.859 43.5V37.3828H134.589V43.5H130.859ZM135.635 43.8105V36.1641H136.104V43.8105H135.635ZM136.572 43.8105V36.1641H137.041V43.8105H136.572ZM143.803 40.043V36.1641H144.271V39.5391H145.435V40.043H143.803ZM142.865 41.0508V36.1641H143.334V40.5469H145.435V41.0508H142.865ZM145.32 40.043V39.5391H149.05V40.043H145.32ZM145.32 41.0508V40.5469H149.05V41.0508H145.32ZM148.936 40.043V39.5391H150.096V36.1641H150.564V40.043H148.936ZM148.936 41.0508V40.5469H151.033V36.1641H151.502V41.0508H148.936ZM156.166 43.5V37.3828H159.896V43.5H156.166ZM159.781 43.5V37.3828H163.511V43.5H159.781ZM164.557 43.8105V36.1641H165.025V43.8105H164.557ZM165.494 43.8105V36.1641H165.963V43.8105H165.494ZM167.012 43.5V37.3828H170.741V43.5H167.012ZM170.627 43.5V37.3828H174.356V43.5H170.627ZM175.402 43.8105V36.1641H175.871V43.8105H175.402ZM176.34 43.8105V36.1641H176.809V43.8105H176.34ZM185.088 43.5V37.3828H188.817V43.5H185.088ZM188.703 43.5V37.3828H192.433V43.5H188.703ZM193.479 43.8105V36.1641H193.947V43.8105H193.479ZM194.416 43.8105V36.1641H194.885V43.8105H194.416ZM195.934 43.5V37.3828H199.663V43.5H195.934ZM199.549 43.5V37.3828H203.278V43.5H199.549ZM204.324 43.8105V39.5391H206.894V40.043H204.793V43.8105H204.324ZM205.262 43.8105V40.5469H206.894V41.0508H205.73V43.8105H205.262ZM206.779 40.043V39.5391H207.939V36.1641H208.408V40.043H206.779ZM206.779 41.0508V40.5469H208.877V36.1641H209.346V41.0508H206.779ZM214.01 43.5V37.3828H217.739V43.5H214.01ZM217.625 43.5V37.3828H221.354V43.5H217.625ZM223.338 43.8105V40.043H221.24V39.5391H223.807V43.8105H223.338ZM222.4 43.8105V41.0508H221.24V40.5469H222.869V43.8105H222.4ZM10.0391 47.043V43.1641H10.5078V46.5391H11.6709V47.043H10.0391ZM9.10156 48.0508V43.1641H9.57031V47.5469H11.6709V48.0508H9.10156ZM11.5566 47.043V46.5391H15.2861V47.043H11.5566ZM11.5566 48.0508V47.5469H15.2861V48.0508H11.5566ZM15.1719 47.043V46.5391H18.9014V47.043H15.1719ZM15.1719 48.0508V47.5469H18.9014V48.0508H15.1719ZM18.7871 47.043V46.5391H22.5166V47.043H18.7871ZM18.7871 48.0508V47.5469H22.5166V48.0508H18.7871ZM22.4023 47.043V46.5391H26.1318V47.043H22.4023ZM22.4023 48.0508V47.5469H26.1318V48.0508H22.4023ZM26.0176 47.043V46.5391H29.7471V47.043H26.0176ZM26.0176 48.0508V47.5469H29.7471V48.0508H26.0176ZM29.6328 47.043V46.5391H30.793V43.1641H31.2617V47.043H29.6328ZM29.6328 48.0508V47.5469H31.7305V43.1641H32.1992V48.0508H29.6328ZM38.9609 47.043V43.1641H39.4297V46.5391H40.5928V47.043H38.9609ZM38.0234 48.0508V43.1641H38.4922V47.5469H40.5928V48.0508H38.0234ZM40.4785 47.043V46.5391H44.208V47.043H40.4785ZM40.4785 48.0508V47.5469H44.208V48.0508H40.4785ZM44.0938 47.043V46.5391H47.8232V47.043H44.0938ZM44.0938 48.0508V47.5469H47.8232V48.0508H44.0938ZM47.709 47.043V46.5391H51.4385V47.043H47.709ZM47.709 48.0508V47.5469H51.4385V48.0508H47.709ZM51.3242 47.043V46.5391H55.0537V47.043H51.3242ZM51.3242 48.0508V47.5469H55.0537V48.0508H51.3242ZM54.9395 47.043V46.5391H58.6689V47.043H54.9395ZM54.9395 48.0508V47.5469H58.6689V48.0508H54.9395ZM58.5547 47.043V46.5391H62.2842V47.043H58.5547ZM58.5547 48.0508V47.5469H62.2842V48.0508H58.5547ZM62.1699 47.043V46.5391H63.3301V43.1641H63.7988V47.043H62.1699ZM62.1699 48.0508V47.5469H64.2676V43.1641H64.7363V48.0508H62.1699ZM78.7285 47.043V43.1641H79.1973V46.5391H80.3604V47.043H78.7285ZM77.791 48.0508V43.1641H78.2598V47.5469H80.3604V48.0508H77.791ZM80.2461 47.043V46.5391H83.9756V47.043H80.2461ZM80.2461 48.0508V47.5469H83.9756V48.0508H80.2461ZM83.8613 47.043V46.5391H85.0215V43.1641H85.4902V47.043H83.8613ZM83.8613 48.0508V47.5469H85.959V43.1641H86.4277V48.0508H83.8613ZM100.42 47.043V43.1641H100.889V46.5391H102.052V47.043H100.42ZM99.4824 48.0508V43.1641H99.9512V47.5469H102.052V48.0508H99.4824ZM101.938 47.043V46.5391H105.667V47.043H101.938ZM101.938 48.0508V47.5469H105.667V48.0508H101.938ZM105.553 47.043V46.5391H106.713V43.1641H107.182V47.043H105.553ZM105.553 48.0508V47.5469H107.65V43.1641H108.119V48.0508H105.553ZM118.496 47.043V43.1641H118.965V46.5391H120.128V47.043H118.496ZM117.559 48.0508V43.1641H118.027V47.5469H120.128V48.0508H117.559ZM120.014 47.043V46.5391H123.743V47.043H120.014ZM120.014 48.0508V47.5469H123.743V48.0508H120.014ZM123.629 47.043V46.5391H124.789V43.1641H125.258V47.043H123.629ZM123.629 48.0508V47.5469H125.727V43.1641H126.195V48.0508H123.629ZM129.342 47.043V43.1641H129.811V46.5391H130.974V47.043H129.342ZM128.404 48.0508V43.1641H128.873V47.5469H130.974V48.0508H128.404ZM130.859 47.043V46.5391H134.589V47.043H130.859ZM130.859 48.0508V47.5469H134.589V48.0508H130.859ZM134.475 47.043V46.5391H135.635V43.1641H136.104V47.043H134.475ZM134.475 48.0508V47.5469H136.572V43.1641H137.041V48.0508H134.475ZM158.264 47.043V43.1641H158.732V46.5391H159.896V47.043H158.264ZM157.326 48.0508V43.1641H157.795V47.5469H159.896V48.0508H157.326ZM159.781 47.043V46.5391H163.511V47.043H159.781ZM159.781 48.0508V47.5469H163.511V48.0508H159.781ZM163.396 47.043V46.5391H164.557V43.1641H165.025V47.043H163.396ZM163.396 48.0508V47.5469H165.494V43.1641H165.963V48.0508H163.396ZM169.109 47.043V43.1641H169.578V46.5391H170.741V47.043H169.109ZM168.172 48.0508V43.1641H168.641V47.5469H170.741V48.0508H168.172ZM170.627 47.043V46.5391H174.356V47.043H170.627ZM170.627 48.0508V47.5469H174.356V48.0508H170.627ZM174.242 47.043V46.5391H175.402V43.1641H175.871V47.043H174.242ZM174.242 48.0508V47.5469H176.34V43.1641H176.809V48.0508H174.242ZM187.186 47.043V43.1641H187.654V46.5391H188.817V47.043H187.186ZM186.248 48.0508V43.1641H186.717V47.5469H188.817V48.0508H186.248ZM188.703 47.043V46.5391H192.433V47.043H188.703ZM188.703 48.0508V47.5469H192.433V48.0508H188.703ZM192.318 47.043V46.5391H193.479V43.1641H193.947V47.043H192.318ZM192.318 48.0508V47.5469H194.416V43.1641H194.885V48.0508H192.318ZM198.031 47.043V43.1641H198.5V46.5391H199.663V47.043H198.031ZM197.094 48.0508V43.1641H197.562V47.5469H199.663V48.0508H197.094ZM199.549 47.043V46.5391H203.278V47.043H199.549ZM199.549 48.0508V47.5469H203.278V48.0508H199.549ZM203.164 47.043V46.5391H204.324V43.1641H204.793V47.043H203.164ZM203.164 48.0508V47.5469H205.262V43.1641H205.73V48.0508H203.164ZM216.107 47.043V43.1641H216.576V46.5391H217.739V47.043H216.107ZM215.17 48.0508V43.1641H215.639V47.5469H217.739V48.0508H215.17ZM217.625 47.043V46.5391H221.354V47.043H217.625ZM217.625 48.0508V47.5469H221.354V48.0508H217.625ZM221.24 47.043V46.5391H222.4V43.1641H222.869V47.043H221.24ZM221.24 48.0508V47.5469H223.338V43.1641H223.807V48.0508H221.24Z" fill="#9370DB"/>
</g>
<defs>
<clipPath id="clip0_7_265">
<rect width="234" height="56" fill="white"/>
</clipPath>
</defs>
</svg>
